<svg width="150" height="150" viewBox="0 0 150 150" fill="none" xmlns="http://www.w3.org/2000/svg">
<g clip-path="url(#clip0)">
<rect width="150" height="150" fill="white"/>
<circle cx="75.0874" cy="75.0933" r="73" transform="rotate(0.0990664 75.0874 75.0933)" fill="url(#paint0_linear)"/>
<path fill-rule="evenodd" clip-rule="evenodd" d="M61.8071 111.998C91.6798 116.374 119.444 95.7048 123.82 65.832C124.826 58.9634 124.508 52.2062 123.059 45.8192C132.21 57.246 136.774 72.2964 134.485 87.9238C130.109 117.797 102.345 138.466 72.4724 134.09C49.4683 130.72 31.922 113.481 27.0676 92.0898C35.4093 102.506 47.5617 109.911 61.8071 111.998Z" fill="#271714"/>
<path fill-rule="evenodd" clip-rule="evenodd" d="M28.5606 43.1545C17.4142 81.7084 39.6325 121.998 78.1865 133.145C92.0523 137.154 106.143 136.847 119.021 133.016C101.247 147.025 77.2076 152.55 53.8081 145.785C15.2542 134.639 -6.96408 94.3485 4.18225 55.7946C11.3198 31.1065 30.4078 13.1168 53.3378 6.29704C41.8261 15.3694 32.9419 28 28.5606 43.1545Z" fill="#7E6064"/>
<path d="M94.1721 26.1262L67.1722 26.0795L62.1082 63.0708L73.1013 67.0898L67.0511 96.0794L94.1159 58.6261L77.616 58.5976L94.1721 26.1262Z" fill="#FFE391" stroke="#FFE391"/>
</g>
<defs>
<linearGradient id="paint0_linear" x1="52.5874" y1="-32.9067" x2="75.0874" y2="75.0933" gradientUnits="userSpaceOnUse">
<stop stop-color="#F3836C"/>
<stop offset="1" stop-color="#ECA078"/>
</linearGradient>
<clipPath id="clip0">
<rect width="150" height="150" fill="white"/>
</clipPath>
</defs>
</svg>
