<svg width="147" height="147" viewBox="0 0 147 147" fill="none" xmlns="http://www.w3.org/2000/svg">
<circle cx="73.1261" cy="73.1261" r="73" transform="rotate(0.0990664 73.1261 73.1261)" fill="url(#paint0_linear)"/>
<path fill-rule="evenodd" clip-rule="evenodd" d="M65.8244 96.5919C95.5037 96.6432 119.605 72.625 119.656 42.9457C119.668 36.1214 118.408 29.592 116.098 23.582C126.61 33.4107 133.17 47.4106 133.143 62.9369C133.092 92.6162 108.991 116.634 79.3114 116.583C56.4565 116.544 36.9585 102.242 29.2237 82.1148C38.8059 91.074 51.6715 96.5674 65.8244 96.5919Z" fill="#7E6064"/>
<path fill-rule="evenodd" clip-rule="evenodd" d="M54.0342 126.093C94.3509 126.163 127.091 93.5362 127.16 53.2195C127.185 38.7196 122.981 25.1999 115.711 13.8275C134.166 27.1046 146.168 48.7829 146.126 73.2522C146.056 113.569 113.316 146.196 72.9998 146.126C47.1829 146.081 24.5193 132.64 11.5751 112.392C23.5275 120.991 38.1868 126.066 54.0342 126.093Z" fill="#271714"/>
<path d="M72.354 21.5842C72.742 20.9291 73.6906 20.9308 74.0764 21.5872L83.2336 37.1674C83.3823 37.4204 83.6345 37.5953 83.9235 37.6458L102.64 40.9186C103.443 41.0591 103.75 42.0507 103.165 42.6199L90.1524 55.2973C89.9247 55.5191 89.8161 55.836 89.8597 56.1509L92.2731 73.5594C92.3806 74.3348 91.5956 74.9275 90.8792 74.6117L73.5385 66.968C73.2826 66.8553 72.9912 66.8548 72.735 66.9667L55.3679 74.5503C54.6504 74.8636 53.8675 74.2682 53.9777 73.4931L56.4512 56.0932C56.496 55.7784 56.3884 55.4612 56.1615 55.2385L43.1924 42.5162C42.6101 41.945 42.9198 40.9544 43.7238 40.8167L62.4514 37.6087C62.7406 37.5591 62.9934 37.3851 63.143 37.1327L72.354 21.5842Z" fill="#FFE391"/>
<defs>
<linearGradient id="paint0_linear" x1="66.6261" y1="59.6261" x2="61.1261" y2="-70.3739" gradientUnits="userSpaceOnUse">
<stop stop-color="#ECA078"/>
<stop offset="1" stop-color="#FF5B5B"/>
</linearGradient>
</defs>
</svg>
